# xmcd
#
# Track frame offsets: 
#        150
#        16589
#        33119
#        52416
#        70331
#        88228
#        110427
#        129172
#        147642
#        151793
#        172175
#        189985
#        206747
#
# Disc length: 3060 seconds
#
# Revision: 0
# Processed by: cddbd v1.5.2PL0 Copyright (c) Steve Scherf et al.
# Submitted via: ExactAudioCopy v1.0b3
#
DISCID=b50bf20d
DTITLE=Jefferson Gonçalves - Encruzilhada
DYEAR=2011
DGENRE=Blues
TTITLE0=Encruzilhada
TTITLE1=Catfish Blues
TTITLE2=Tudo Azul
TTITLE3=Long Hard Road
TTITLE4=Down in Mississipi
TTITLE5=Coisa de Cumpadi
TTITLE6=Arrumando a Casa
TTITLE7=Kariri
TTITLE8=Harp Groove
TTITLE9=My Baby Is Back
TTITLE10=Na Hora!
TTITLE11=Raízes
TTITLE12=Água Viva
EXTD=
EXTT0=
EXTT1=
EXTT2=
EXTT3=
EXTT4=
EXTT5=
EXTT6=
EXTT7=
EXTT8=
EXTT9=
EXTT10=
EXTT11=
EXTT12=
PLAYORDER=
